<svg width="126" height="65" viewBox="0 0 126 65" fill="none" xmlns="http://www.w3.org/2000/svg">
<path d="M122.832 19.7922C125.418 19.7922 125.418 17.1975 125.418 15.9001C122.832 10.7108 118.953 5.5214 113.781 1.62938C112.919 0.764483 112.057 0.332031 111.195 0.332031C111.195 1.19693 110.764 1.62938 109.902 1.62938C109.902 2.49427 109.902 3.35915 109.902 4.22405C111.626 5.95384 112.919 8.11607 113.781 10.7108C94.3867 0.332021 68.5273 4.22406 49.1328 13.3055C38.7891 17.1975 28.4453 24.9815 20.6875 32.7656C16.3776 37.0901 12.4987 41.4145 9.05079 45.739C5.17189 50.9284 1.29297 56.1177 0 61.3071C0 63.9018 2.58593 65.1991 3.8789 63.9018C7.7578 60.0098 10.3438 56.1177 14.2227 50.9284C16.8086 46.6039 20.2565 42.7119 24.5664 39.2523C32.3242 31.4682 41.375 24.9815 51.7188 19.7922C62.0625 14.6028 73.6992 12.0081 85.3359 10.7108C96.9726 9.41341 107.316 12.0081 117.66 15.9001C115.074 15.9001 112.488 16.3326 109.902 17.1975C106.023 18.4948 102.145 18.4948 99.5586 22.3869C99.5586 23.6842 99.5586 24.9815 102.145 26.2789C104.73 26.2789 108.609 23.6842 111.195 23.6842C115.505 21.9544 119.384 20.6571 122.832 19.7922Z" fill="#474747"/>
</svg>
