<svg width="241" height="120" viewBox="0 0 241 120" fill="none" xmlns="http://www.w3.org/2000/svg">
<rect x="0.5" width="240" height="120" rx="16" fill="black" fill-opacity="0.04"/>
<path d="M109.477 67.9641C112.239 69.2874 115.276 70.1315 118.478 70.3883C119.284 70.453 119.907 71.1234 119.907 71.933C119.907 72.8399 119.132 73.5503 118.228 73.4776C115.149 73.2314 112.206 72.4998 109.477 71.3599C99.0805 67.02 91.7734 56.7565 91.7734 44.7862C91.7734 37.6377 94.3792 31.0977 98.6934 26.0642C98.9981 25.7091 99.3108 25.361 99.6323 25.0209C100.406 24.2016 101.771 24.462 102.194 25.5071L102.575 26.4486L108.092 40.0858L109.477 43.5073L111.06 47.4194C111.582 48.7116 113.413 48.7108 113.934 47.4167L116.496 41.0556C116.733 40.4693 117.301 40.0849 117.934 40.0849H118.316C119.414 40.0849 120.164 41.1956 119.754 42.2141L114.365 55.5891L113.94 56.644C113.419 57.9371 111.588 57.9389 111.066 56.6466L110.64 55.5935L109.476 52.7186L104.365 40.0858L101.125 32.0773C100.642 30.8833 98.9963 30.7647 98.348 31.878C96.1382 35.6714 94.8725 40.0814 94.8725 44.788C94.8725 53.7274 99.4392 61.6004 106.367 66.1998C107.357 66.8579 108.396 67.4487 109.476 67.9659L109.477 67.9641Z" fill="url(#paint0_linear_2627_10205)"/>
<path d="M130.62 48.988H127.585C126.863 48.988 126.277 49.5734 126.277 50.2953V69.7453C126.291 69.7417 126.306 69.7391 126.32 69.7355V69.8223C131.421 68.6541 135.944 65.966 139.386 62.2602C140.208 61.3745 140.968 60.4313 141.661 59.4357C142.628 58.0443 143.463 56.5528 144.144 54.9789C145.496 51.8541 146.245 48.4078 146.245 44.7862C146.245 42.0361 145.813 39.387 145.013 36.9035C144.629 35.7113 144.16 34.5572 143.614 33.4492C143.459 33.1348 143.298 32.823 143.13 32.5157C143.09 32.4431 143.051 32.3704 143.01 32.2987C139.895 26.6647 134.726 22.3257 128.512 20.293C127.416 19.9343 126.289 19.6473 125.133 19.4374C123.636 19.1655 122.093 19.0238 120.518 19.0238C115.323 19.0238 110.488 20.5667 106.446 23.2176C105.756 23.6711 104.824 23.3876 104.515 22.6224L104.361 22.2424C104.127 21.6632 104.335 20.998 104.858 20.6561C109.374 17.7112 114.768 16 120.56 16C122.545 16 124.484 16.2011 126.356 16.5837C127.502 16.8184 128.623 17.1204 129.716 17.4871C137.507 20.099 143.812 25.9535 147.027 33.4483C147.506 34.5652 147.916 35.7184 148.252 36.9026C148.965 39.4073 149.345 42.052 149.345 44.7853C149.345 51.328 147.162 57.3623 143.485 62.1965C142.759 63.1504 141.975 64.0573 141.138 64.9129C137.191 68.9482 132.066 71.8276 126.32 72.994C125.669 73.126 125.011 73.2367 124.346 73.3235C123.562 73.4263 122.866 72.8169 122.866 72.0269V46.9172C122.866 46.1954 123.451 45.6099 124.173 45.6099H132.529C134.442 45.5151 135.967 43.5994 135.967 41.2567C135.967 41.2009 135.966 41.1451 135.964 41.0902V41.0831C135.962 41.0353 135.961 40.9883 135.957 40.9414C135.956 40.9228 135.955 40.9042 135.954 40.8856C135.952 40.8493 135.948 40.8138 135.945 40.7784C135.939 40.7146 135.932 40.6509 135.924 40.5871C135.918 40.5322 135.91 40.4782 135.901 40.4241C135.893 40.3736 135.884 40.3232 135.875 40.2736C135.867 40.2319 135.859 40.1912 135.849 40.1496C135.845 40.1248 135.838 40.0991 135.832 40.0743C135.823 40.0326 135.813 39.991 135.802 39.9494C135.789 39.898 135.775 39.8475 135.76 39.7979C135.76 39.797 135.76 39.7962 135.76 39.7953C135.745 39.7448 135.729 39.6943 135.713 39.6447C135.696 39.5933 135.678 39.5428 135.659 39.4924C135.644 39.4507 135.628 39.41 135.613 39.3692C135.598 39.3321 135.583 39.2957 135.567 39.2603C135.558 39.2373 135.548 39.2143 135.538 39.1912C135.536 39.1877 135.535 39.185 135.534 39.1815C135.517 39.1434 135.499 39.1062 135.481 39.0699C135.463 39.0309 135.444 38.9928 135.424 38.9547C135.399 38.9051 135.373 38.8564 135.346 38.8086C135.341 38.798 135.334 38.7891 135.329 38.7794C135.311 38.7484 135.294 38.7174 135.275 38.6873C135.256 38.6554 135.237 38.6244 135.217 38.5934C135.148 38.4862 135.077 38.3835 135.001 38.2852C134.978 38.2559 134.956 38.2276 134.933 38.2001C134.887 38.1426 134.839 38.0876 134.791 38.0336C134.769 38.0106 134.748 37.9876 134.726 37.9645C134.705 37.9415 134.683 37.9194 134.66 37.8972C134.638 37.8742 134.616 37.8529 134.593 37.8317C134.548 37.7883 134.502 37.7466 134.455 37.7059C134.432 37.6855 134.408 37.666 134.384 37.6466C134.363 37.628 134.341 37.6111 134.319 37.5943C134.314 37.5908 134.309 37.5863 134.303 37.5819C134.281 37.5642 134.259 37.5482 134.238 37.5332C134.14 37.4606 134.038 37.3932 133.933 37.3321C133.909 37.318 133.885 37.3038 133.861 37.2905C133.637 37.1674 133.403 37.0717 133.158 37.0062C133.123 36.9956 133.087 36.9876 133.05 36.9796C132.941 36.9548 132.831 36.9353 132.719 36.9221C132.682 36.9176 132.644 36.9141 132.606 36.9114C132.58 36.9097 132.554 36.9079 132.529 36.907C132.509 36.9052 132.49 36.9043 132.47 36.9043C132.439 36.9043 132.408 36.9026 132.377 36.9026H110.785C110.064 36.9026 109.478 36.3171 109.478 35.5953V34.7556C109.478 34.0338 110.064 33.4483 110.785 33.4483H132.058C134.404 33.4483 136.473 34.7857 137.707 36.8255C137.722 36.8512 137.735 36.8769 137.75 36.9026C137.797 36.9805 137.843 37.0593 137.887 37.1391C137.897 37.1559 137.906 37.1727 137.915 37.1895C138.544 38.3649 138.906 39.743 138.906 41.2177C138.906 42.8146 138.481 44.2982 137.753 45.5329C136.961 46.8782 135.807 47.9269 134.448 48.5008L134.497 48.5752C134.497 48.5752 134.492 48.577 134.49 48.5779L134.811 49.0641L137.327 52.8727C137.901 53.7415 137.278 54.9009 136.236 54.9009H135.237C134.798 54.9009 134.389 54.6804 134.146 54.3146L130.701 49.1005C130.685 49.0765 130.669 49.0535 130.652 49.0305L130.619 48.9871" fill="url(#paint1_linear_2627_10205)"/>
<path d="M67.1091 88.5788V90.1487H61.0941V99.9277H59.5242V90.1487H53.5092V88.5788H67.1091ZM70.1522 98.3767H83.1657V99.9277H70.1522V98.3767ZM70.1522 93.4777H81.3498V95.0477H70.1522V93.4777ZM70.1522 88.5788H83.1657V90.1487H70.1522V88.5788ZM86.1856 95.7854V92.7401C86.1856 90.4513 88.0392 88.5788 90.3279 88.5788H91.5952H92.8625H93.638H95.1323H96.6266C98.764 88.5788 100.561 90.2433 100.75 92.3428H99.199C98.991 91.0945 97.9128 90.1487 96.6266 90.1487H95.1323H93.638H92.8625H91.5952H90.3279C88.9093 90.1487 87.7366 91.3214 87.7366 92.7401V95.7854C87.7366 97.204 88.9093 98.3767 90.3279 98.3767H91.5952H92.8625H93.638H95.1323H96.6266C97.9128 98.3767 98.991 97.431 99.199 96.1826H100.75C100.561 98.2821 98.764 99.9277 96.6266 99.9277H95.1323H93.638H92.8625H91.5952H90.3279C88.0392 99.9277 86.1856 98.0741 86.1856 95.7854ZM103.789 88.5788H105.34V93.4777H115.838V88.5788H117.389V99.9277H115.838V95.0477H105.34V99.9277H103.789V88.5788ZM131.7 88.5788H133.251V99.9277H131.7V88.5788ZM136.281 88.5788H138.645L148.443 98.5469V88.5788H149.994V99.9277H147.611L137.832 89.9785V99.9277H136.281V88.5788ZM153.016 99.9277V93.4777H164.214V95.0477H154.567V99.9277H153.016ZM153.016 88.5788H166.029V90.1487H153.016V88.5788ZM169.049 92.7401C169.049 90.4513 170.903 88.5788 173.192 88.5788H175.575H176.445H177.221H178.431H180.474C182.763 88.5788 184.635 90.4513 184.635 92.7401V95.7854C184.635 98.0741 182.763 99.9277 180.474 99.9277H178.507H177.221H176.445H174.818H173.192C170.903 99.9277 169.049 98.0741 169.049 95.7854V92.7401ZM173.192 98.3767H174.818H176.445H177.221H178.507H180.474C181.911 98.3767 183.065 97.204 183.065 95.7854V92.7401C183.065 91.3214 181.911 90.1487 180.474 90.1487H178.431H177.221H176.445H175.575H173.192C171.773 90.1487 170.6 91.3214 170.6 92.7401V95.7854C170.6 97.204 171.773 98.3767 173.192 98.3767Z" fill="#E83D56"/>
<defs>
<linearGradient id="paint0_linear_2627_10205" x1="116.769" y1="24.5371" x2="94.9114" y2="73.4828" gradientUnits="userSpaceOnUse">
<stop stop-color="#DA2237"/>
<stop offset="1" stop-color="#74121D"/>
</linearGradient>
<linearGradient id="paint1_linear_2627_10205" x1="116.005" y1="16" x2="137.606" y2="73.3349" gradientUnits="userSpaceOnUse">
<stop offset="0.03" stop-color="#E83D56"/>
<stop offset="1" stop-color="#A51C30"/>
</linearGradient>
</defs>
</svg>
