<svg width="241" height="120" viewBox="0 0 241 120" fill="none" xmlns="http://www.w3.org/2000/svg">
<rect x="0.5" width="240" height="120" rx="16" fill="black" fill-opacity="0.04"/>
<g clip-path="url(#clip0_2627_10204)">
<path d="M45.0391 26.4488V26.1087L44.8333 25.7829C43.8016 24.8026 42.8442 23.7366 41.8068 22.7621C41.6067 22.5734 41.1494 22.0962 40.9094 22.0533C40.2949 21.9504 39.8462 22.6392 40.232 23.1393L42.6784 25.5972H28.06C27.8713 25.5972 27.5827 25.9315 27.5312 26.1087V26.4488C27.5827 26.626 27.8742 26.9604 28.06 26.9604H42.6784L40.232 29.4182C39.8462 29.9184 40.2949 30.6043 40.9094 30.5043C41.1466 30.4643 41.5781 30.0156 41.7725 29.8298C42.8213 28.8438 43.7902 27.7663 44.8333 26.7746L45.0391 26.4488Z" fill="#57BD82"/>
<path d="M27.5312 18.4078V18.0677L27.737 17.7419C28.7687 16.7616 29.7262 15.6956 30.7636 14.721C30.9637 14.5324 31.4209 14.0551 31.661 14.0123C32.2755 13.9094 32.7242 14.5982 32.3383 15.0983L29.8919 17.5561H44.5104C44.699 17.5561 44.9877 17.8905 45.0391 18.0677V18.4078C44.9877 18.585 44.6962 18.9194 44.5104 18.9194H29.8919L32.3383 21.3772C32.7242 21.8774 32.2755 22.5633 31.661 22.4633C31.4238 22.4232 30.9922 21.9745 30.7979 21.7888C29.749 20.8028 28.7802 19.7253 27.737 18.7336L27.5312 18.4078Z" fill="#57BD82"/>
<path d="M38.4974 38.9108V89.2709C38.4974 90.9657 39.0347 92.409 40.1122 93.5979C41.1982 94.7811 42.5243 95.3727 44.0933 95.3727C45.6623 95.3727 47.1085 94.7954 48.2631 93.6408C49.4177 92.4861 49.995 91.1315 49.995 89.5739V72.0746C49.995 70.517 49.4177 69.1595 48.2631 68.0077C47.1085 66.8531 45.7166 66.2758 44.0933 66.2758H40.6323V56.8131H44.0933C47.3428 56.8131 50.2236 57.4761 52.7329 58.8051C55.2422 60.1255 57.2085 61.9345 58.6318 64.2438C60.0522 66.553 60.7666 69.1995 60.7666 72.1775V89.5739C60.7666 92.6262 60.035 95.4013 58.5746 97.9105C57.1199 100.42 55.1422 102.426 52.63 103.927C50.1207 105.416 47.2714 106.161 44.0905 106.161C40.9095 106.161 38.1602 105.381 35.6795 103.824C33.2045 102.257 31.2268 100.185 29.7349 97.6076C28.2431 95.0326 27.5 92.2518 27.5 89.2709V38.9108C27.5657 37.076 28.1916 35.7013 29.3748 34.7839C30.5637 33.8722 31.8069 33.4121 33.0959 33.4121C34.4506 33.4121 35.6852 33.8694 36.8027 34.7839C37.9287 35.7013 38.4917 37.0732 38.4917 38.9108H38.4974Z" fill="#57BD82"/>
<path d="M78.5388 89.3067C78.5388 91.0787 79.0933 92.5591 80.2136 93.7509C81.3396 94.934 82.6457 95.5257 84.1375 95.5257C86.1067 95.5257 87.4985 96.0715 88.3073 97.1547C89.1218 98.2321 89.5334 99.4496 89.5334 100.804C89.5334 102.159 89.0904 103.416 88.2073 104.568C87.3299 105.723 85.9752 106.3 84.1404 106.3C81.0252 106.3 78.2273 105.574 75.7437 104.122C73.2687 102.662 71.3368 100.661 69.9449 98.1207C68.5588 95.5742 67.8672 92.6363 67.8672 89.3067V44.411C67.8672 42.5191 68.3902 41.1787 69.4391 40.4013C70.4851 39.6211 71.7254 39.2324 73.1601 39.2324C74.5148 39.2324 75.7494 39.6754 76.8669 40.5585C77.9815 41.4359 78.5417 42.7191 78.5417 44.411V89.3067H78.5388Z" fill="#57BD82"/>
<path d="M96.3672 61.6556C96.3672 59.8951 96.9588 58.5604 98.142 57.6459C99.3309 56.7228 100.574 56.2598 101.863 56.2598C103.218 56.2598 104.475 56.7228 105.627 57.6459C106.782 58.5633 107.359 59.8951 107.359 61.6556V89.5407C107.359 91.1669 107.913 92.5559 109.034 93.7105C110.148 94.8651 111.523 95.4424 113.161 95.4424C114.798 95.4424 116.176 94.8651 117.33 93.7105C118.485 92.5559 119.062 91.1669 119.062 89.5407V61.6556C119.062 59.8951 119.617 58.5747 120.737 57.6887C121.863 56.8056 123.066 56.3627 124.358 56.3627C125.65 56.3627 126.962 56.8056 128.108 57.6887C129.262 58.5747 129.84 59.8951 129.84 61.6556V89.5407C129.84 92.5244 129.059 95.2881 127.502 97.8345C125.944 100.372 123.909 102.422 121.4 103.979C118.891 105.537 116.141 106.317 113.163 106.317C110.185 106.317 107.385 105.537 104.81 103.979C102.232 102.422 100.18 100.355 98.6507 97.7773C97.1274 95.2023 96.37 92.453 96.37 89.5407V61.6556H96.3672Z" fill="#57BD82"/>
<path d="M147.439 101.137C147.439 102.832 146.876 104.1 145.75 104.946C144.632 105.79 143.398 106.215 142.043 106.215C140.688 106.215 139.465 105.79 138.379 104.946C137.293 104.103 136.75 102.834 136.75 101.137V72.8487C136.75 69.7249 137.482 66.9127 138.942 64.4091C140.402 61.8998 142.354 59.9021 144.798 58.4074C147.239 56.907 149.951 56.1582 152.935 56.1582C155.107 56.1582 157.342 56.7041 159.642 57.7872C161.951 58.8761 163.612 60.7081 164.632 63.2831C165.65 60.6395 167.33 58.7932 169.668 57.7444C172.006 56.6869 174.226 56.1582 176.333 56.1582C179.311 56.1582 182.037 56.9441 184.512 58.5103C186.993 60.0679 188.976 62.1228 190.471 64.6692C191.971 67.2071 192.72 69.9336 192.72 72.8487V101.137C192.72 102.832 192.123 104.12 190.931 105.004C189.748 105.875 188.511 106.315 187.224 106.315C185.87 106.315 184.627 105.875 183.503 105.004C182.386 104.12 181.829 102.832 181.829 101.137V72.8487C181.829 71.2911 181.251 69.9336 180.097 68.7818C178.942 67.6272 177.587 67.0499 176.03 67.0499C174.472 67.0499 173.149 67.6272 171.86 68.7818C170.568 69.9364 169.928 71.2911 169.928 72.8487V101.137C169.928 102.832 169.365 104.1 168.239 104.946C167.122 105.79 165.887 106.215 164.532 106.215C163.178 106.215 161.92 105.79 160.768 104.946C159.614 104.103 159.036 102.834 159.036 101.137V72.8487C159.036 71.494 158.49 70.1908 157.407 68.939C156.318 67.6815 154.929 67.0499 153.238 67.0499C151.68 67.0499 150.322 67.6272 149.171 68.7818C148.016 69.9364 147.439 71.2911 147.439 72.8487V101.137Z" fill="#57BD82"/>
<path d="M211.944 65.0136C211.944 63.0445 211.398 61.587 210.314 60.6438C209.226 59.6921 207.971 59.2148 206.551 59.2148C205.259 59.2148 204.018 59.6921 202.829 60.6438C201.646 61.5898 201.055 63.0445 201.055 65.0136V100.312C201.055 102.353 201.609 103.862 202.729 104.842C203.855 105.822 205.059 106.314 206.35 106.314C207.839 106.314 209.143 105.774 210.26 104.685C211.386 103.599 211.949 102.141 211.949 100.315V65.0165H211.944V65.0136Z" fill="#57BD82"/>
<path d="M206.504 42.6435C208.813 42.6435 210.502 43.3065 211.583 44.6355C212.669 45.9559 213.212 47.4906 213.212 49.2511C213.212 51.4946 212.432 53.1579 210.874 54.2411C209.316 55.33 207.859 55.8701 206.504 55.8701C205.887 55.8701 205.035 55.7186 203.952 55.4071C202.875 55.1013 201.911 54.4754 201.068 53.5323C200.214 52.5806 199.785 51.1516 199.785 49.2482C199.785 47.4877 200.414 45.953 201.66 44.6326C202.917 43.3065 204.535 42.6406 206.507 42.6406H206.504V42.6435Z" fill="#57BD82"/>
</g>
<defs>
<clipPath id="clip0_2627_10204">
<rect width="185.713" height="92.315" fill="white" transform="translate(27.5 14)"/>
</clipPath>
</defs>
</svg>
